<svg id="svg" version="1.1" xmlns="http://www.w3.org/2000/svg"
    xmlns:xlink="http://www.w3.org/1999/xlink" width="400" height="315.9969673995451"
    viewBox="0, 0, 400,315.9969673995451">
    <g id="svgg">
        <path id="path0"
            d="M195.000 14.431 C 191.757 14.792,187.809 15.854,184.667 17.213 C 184.438 17.312,184.213 17.401,184.167 17.411 C 184.121 17.421,183.585 17.670,182.976 17.964 C 182.367 18.259,181.786 18.500,181.685 18.500 C 181.583 18.500,181.500 18.575,181.500 18.667 C 181.500 18.758,181.360 18.833,181.189 18.833 C 181.018 18.833,180.699 18.973,180.481 19.144 C 180.262 19.315,179.687 19.655,179.203 19.900 C 178.267 20.372,176.856 21.266,176.167 21.823 C 175.938 22.008,175.688 22.161,175.613 22.163 C 175.538 22.165,175.121 22.467,174.686 22.833 C 174.251 23.200,173.847 23.500,173.789 23.500 C 173.730 23.500,173.502 23.669,173.282 23.875 C 173.062 24.081,172.440 24.625,171.900 25.083 C 170.182 26.538,168.333 28.382,168.333 28.640 C 168.333 28.777,168.291 28.846,168.238 28.794 C 168.135 28.691,167.275 29.604,166.240 30.916 C 165.879 31.375,165.483 31.855,165.360 31.985 C 165.238 32.114,164.948 32.527,164.717 32.902 C 164.486 33.277,164.208 33.658,164.099 33.750 C 163.632 34.144,160.449 39.773,160.001 40.997 C 159.828 41.471,159.615 41.947,159.529 42.055 C 159.295 42.347,158.509 44.281,158.162 45.417 C 157.995 45.967,157.590 47.191,157.262 48.138 C 156.935 49.084,156.667 50.003,156.667 50.179 C 156.667 50.356,156.579 50.500,156.472 50.500 C 156.365 50.500,156.319 50.541,156.369 50.592 C 156.475 50.697,156.421 50.940,155.602 54.048 C 153.961 60.272,153.219 69.334,153.830 75.667 C 154.062 78.064,153.986 77.888,154.942 78.236 C 156.431 78.776,157.911 79.407,158.583 79.786 C 158.950 79.993,159.342 80.164,159.455 80.165 C 159.568 80.166,160.151 80.467,160.750 80.833 C 161.349 81.200,161.879 81.500,161.927 81.500 C 161.975 81.500,162.105 81.574,162.215 81.665 C 163.335 82.585,164.280 83.286,164.412 83.296 C 164.746 83.321,164.647 83.594,164.187 83.917 C 163.926 84.100,163.336 84.532,162.874 84.878 C 161.925 85.588,160.680 86.311,159.333 86.932 C 158.829 87.165,158.117 87.495,157.750 87.667 C 156.151 88.414,155.200 88.790,154.649 88.893 L 154.057 89.004 153.845 91.334 C 153.440 95.785,153.678 103.065,154.340 106.530 C 154.489 107.304,154.712 108.724,154.919 110.199 C 154.954 110.447,155.256 111.684,155.591 112.949 C 155.926 114.215,156.237 115.438,156.281 115.667 C 156.324 115.896,156.405 116.196,156.459 116.333 C 156.513 116.471,156.577 116.739,156.600 116.930 C 156.623 117.121,156.955 118.171,157.336 119.263 C 157.718 120.356,158.088 121.475,158.158 121.750 C 158.369 122.571,159.261 124.553,160.862 127.750 C 162.234 130.492,163.481 132.583,164.369 133.631 C 164.625 133.932,164.833 134.247,164.833 134.331 C 164.833 134.414,165.030 134.693,165.271 134.950 C 165.512 135.207,166.014 135.829,166.387 136.333 C 167.524 137.872,172.846 143.024,173.649 143.363 C 173.796 143.425,174.217 143.759,174.583 144.105 C 174.950 144.450,175.521 144.887,175.853 145.075 C 176.732 145.573,178.408 146.722,178.472 146.872 C 178.503 146.942,178.636 147.000,178.767 147.000 C 178.899 147.000,179.314 147.194,179.689 147.431 C 180.247 147.783,183.556 149.405,184.917 149.994 C 185.505 150.248,190.574 151.808,190.833 151.815 C 190.971 151.818,192.058 151.984,193.250 152.183 C 196.114 152.661,200.588 152.701,203.250 152.273 C 204.258 152.111,205.308 151.943,205.583 151.901 C 205.858 151.858,206.496 151.700,207.000 151.551 C 207.504 151.401,207.994 151.262,208.088 151.243 C 208.182 151.223,208.744 151.017,209.338 150.785 C 210.277 150.418,211.055 150.143,211.333 150.081 C 211.379 150.071,212.072 149.745,212.872 149.358 C 213.672 148.971,214.385 148.644,214.455 148.631 C 214.526 148.619,214.943 148.397,215.382 148.138 C 215.822 147.879,216.253 147.667,216.341 147.667 C 216.428 147.667,216.500 147.601,216.500 147.520 C 216.500 147.369,217.398 146.941,217.599 146.997 C 217.662 147.014,217.759 146.964,217.815 146.884 C 217.961 146.678,219.643 145.500,219.793 145.500 C 219.997 145.500,221.681 144.246,222.423 143.542 C 222.544 143.427,222.723 143.333,222.821 143.333 C 222.920 143.333,223.000 143.258,223.000 143.167 C 223.000 143.075,223.060 143.000,223.133 143.000 C 223.512 143.000,230.167 136.471,230.167 136.100 C 230.167 136.050,230.560 135.512,231.042 134.905 C 231.523 134.297,231.898 133.733,231.875 133.650 C 231.852 133.568,231.895 133.500,231.970 133.500 C 232.127 133.500,233.000 132.215,233.000 131.985 C 233.000 131.902,233.057 131.833,233.127 131.833 C 233.197 131.833,233.433 131.458,233.650 131.000 C 233.868 130.542,234.103 130.167,234.173 130.167 C 234.295 130.167,237.000 124.837,237.000 124.598 C 237.000 124.534,237.333 123.717,237.739 122.782 C 238.146 121.848,238.509 120.896,238.547 120.667 C 238.585 120.438,238.659 120.138,238.713 120.000 C 239.043 119.155,239.833 116.560,240.083 115.500 C 240.246 114.813,240.552 113.575,240.765 112.750 C 241.384 110.344,241.799 108.331,241.914 107.167 C 241.973 106.571,242.133 105.221,242.270 104.167 C 242.748 100.502,242.724 91.013,242.233 89.306 C 242.166 89.074,241.221 88.673,239.417 88.110 C 239.325 88.081,238.592 87.745,237.788 87.362 C 236.985 86.980,236.292 86.667,236.249 86.667 C 236.205 86.667,235.738 86.367,235.210 86.000 C 234.682 85.634,234.192 85.334,234.121 85.334 C 233.946 85.333,231.833 83.664,231.834 83.526 C 231.835 83.396,233.639 81.938,234.000 81.775 C 234.137 81.714,234.475 81.516,234.750 81.336 C 235.573 80.797,236.851 80.125,237.970 79.642 C 238.550 79.392,239.112 79.120,239.220 79.037 C 239.328 78.954,239.979 78.713,240.667 78.502 C 242.339 77.988,242.271 78.115,242.483 75.167 C 242.807 70.673,242.706 66.536,242.161 61.917 C 241.762 58.542,241.624 57.744,241.013 55.302 C 240.662 53.898,240.322 52.450,240.256 52.083 C 240.190 51.717,239.802 50.367,239.393 49.083 C 238.984 47.800,238.565 46.450,238.461 46.083 C 238.358 45.717,238.223 45.342,238.162 45.250 C 238.101 45.158,237.768 44.371,237.422 43.500 C 237.076 42.629,236.746 41.842,236.690 41.750 C 236.634 41.658,236.583 41.546,236.576 41.500 C 236.542 41.272,234.900 38.076,234.792 38.028 C 234.723 37.997,234.667 37.891,234.667 37.792 C 234.667 37.589,233.671 35.971,233.450 35.815 C 233.370 35.759,233.301 35.646,233.297 35.565 C 233.284 35.325,231.224 32.296,230.700 31.745 C 230.435 31.468,230.189 31.150,230.151 31.038 C 229.983 30.536,225.578 25.958,224.395 25.055 C 224.054 24.796,223.581 24.396,223.343 24.167 C 222.954 23.793,221.708 22.857,221.013 22.417 C 220.868 22.325,220.713 22.206,220.667 22.153 C 220.511 21.973,218.001 20.323,217.715 20.213 C 217.558 20.153,216.910 19.783,216.274 19.391 C 215.637 18.999,215.053 18.717,214.975 18.765 C 214.897 18.814,214.833 18.774,214.833 18.677 C 214.833 18.579,214.777 18.515,214.708 18.533 C 214.640 18.551,214.113 18.324,213.538 18.029 C 211.074 16.762,207.159 15.474,204.333 15.001 C 203.279 14.825,202.154 14.634,201.833 14.577 C 201.131 14.453,195.823 14.340,195.000 14.431 M199.500 21.247 C 199.729 21.293,200.689 21.446,201.633 21.586 C 204.163 21.963,207.927 23.065,210.000 24.036 C 210.596 24.316,211.421 24.695,211.833 24.880 C 212.246 25.064,213.086 25.541,213.699 25.941 C 214.313 26.340,214.887 26.667,214.975 26.667 C 215.119 26.667,216.117 27.407,216.875 28.076 C 217.035 28.217,217.167 28.295,217.167 28.249 C 217.167 28.162,217.941 28.803,218.607 29.441 C 218.812 29.637,219.008 29.770,219.043 29.735 C 219.369 29.409,224.665 35.243,226.374 37.811 C 227.084 38.877,227.739 39.839,227.829 39.947 C 227.991 40.143,230.610 45.175,230.632 45.333 C 230.652 45.478,231.000 46.403,231.166 46.750 C 231.377 47.192,231.995 48.894,232.085 49.278 C 232.124 49.446,232.431 50.446,232.766 51.500 C 233.674 54.357,235.105 60.803,235.263 62.750 C 235.314 63.392,235.387 64.217,235.424 64.583 C 235.461 64.950,235.541 66.975,235.603 69.083 L 235.715 72.917 234.181 73.635 C 233.338 74.030,232.183 74.644,231.615 75.001 C 229.965 76.037,228.006 77.378,227.413 77.878 L 226.865 78.340 226.480 77.712 C 226.269 77.366,226.002 76.987,225.888 76.869 C 225.773 76.752,225.177 75.627,224.563 74.369 C 223.518 72.230,223.244 71.637,222.620 70.167 C 222.484 69.846,222.260 69.321,222.123 69.000 C 221.985 68.679,221.781 68.154,221.669 67.833 C 221.441 67.178,221.310 66.842,220.954 66.000 C 220.818 65.679,220.542 64.892,220.340 64.250 C 220.139 63.608,219.930 62.971,219.876 62.833 C 219.823 62.696,219.766 62.546,219.750 62.500 C 219.734 62.454,219.678 62.304,219.625 62.167 C 219.326 61.387,218.499 58.793,218.433 58.427 C 218.332 57.873,218.181 57.336,218.008 56.917 C 217.767 56.334,216.810 53.163,216.735 52.698 C 216.607 51.906,216.292 50.588,216.191 50.417 C 216.137 50.325,216.076 50.137,216.055 50.000 C 216.034 49.862,215.832 49.038,215.605 48.167 C 215.379 47.296,215.077 46.021,214.936 45.333 C 214.794 44.646,214.413 42.958,214.090 41.583 C 213.766 40.208,213.459 38.708,213.408 38.250 C 213.357 37.792,213.203 36.892,213.067 36.250 C 212.930 35.608,212.714 34.521,212.586 33.833 C 212.457 33.146,212.301 32.340,212.239 32.042 L 212.125 31.500 198.149 31.500 L 184.173 31.500 184.088 31.875 C 183.786 33.212,183.481 34.871,183.406 35.583 C 183.358 36.042,183.064 37.579,182.752 39.000 C 182.441 40.421,182.137 41.808,182.077 42.083 C 182.017 42.358,181.829 43.296,181.659 44.167 C 181.489 45.038,181.076 46.762,180.740 48.000 C 180.404 49.237,180.104 50.475,180.073 50.750 C 180.042 51.025,179.780 52.038,179.491 53.000 C 179.202 53.962,178.947 54.825,178.924 54.917 C 178.902 55.008,178.837 55.196,178.780 55.333 C 178.724 55.471,178.528 56.146,178.346 56.833 C 177.864 58.650,175.921 64.479,175.350 65.821 C 175.081 66.454,174.893 67.004,174.932 67.043 C 174.995 67.106,174.814 67.570,173.974 69.500 C 173.874 69.729,173.685 70.123,173.553 70.375 C 173.422 70.628,173.285 70.986,173.249 71.173 C 173.158 71.642,171.386 75.228,170.717 76.295 C 170.414 76.778,170.167 77.216,170.167 77.269 C 170.167 77.322,170.013 77.581,169.825 77.846 L 169.482 78.326 168.283 77.410 C 167.623 76.906,166.877 76.402,166.625 76.290 C 166.373 76.177,166.167 76.033,166.167 75.968 C 166.167 75.904,165.774 75.653,165.293 75.412 C 164.813 75.171,164.382 74.920,164.335 74.854 C 164.161 74.609,162.707 73.849,162.605 73.950 C 162.547 74.008,162.500 73.968,162.500 73.861 C 162.500 73.754,162.424 73.667,162.332 73.667 C 162.239 73.667,161.826 73.508,161.415 73.315 L 160.667 72.963 160.668 69.857 C 160.669 68.148,160.782 65.749,160.918 64.526 C 161.055 63.303,161.128 62.239,161.081 62.162 C 161.033 62.086,161.055 61.986,161.129 61.940 C 161.203 61.894,161.281 61.570,161.303 61.220 C 161.364 60.223,161.648 58.717,162.083 57.083 C 162.303 56.258,162.520 55.396,162.566 55.167 C 162.612 54.938,162.695 54.563,162.751 54.333 C 162.807 54.104,162.893 53.698,162.941 53.430 C 163.051 52.821,164.924 47.093,165.234 46.417 C 165.777 45.233,166.500 43.519,166.500 43.414 C 166.500 43.352,166.645 43.098,166.822 42.849 C 166.999 42.601,167.413 41.877,167.742 41.240 C 168.451 39.871,168.581 39.656,169.292 38.689 C 169.590 38.284,169.833 37.857,169.833 37.740 C 169.833 37.623,169.894 37.503,169.968 37.472 C 170.041 37.442,170.543 36.817,171.082 36.083 C 172.031 34.792,176.029 30.686,177.492 29.500 C 182.624 25.340,189.418 22.209,194.667 21.585 C 195.079 21.536,195.979 21.388,196.667 21.256 C 197.825 21.033,198.428 21.032,199.500 21.247 M206.391 38.792 C 206.604 39.569,206.873 40.894,206.915 41.378 C 206.941 41.674,207.012 42.138,207.074 42.408 C 207.135 42.679,207.294 43.418,207.428 44.052 C 207.561 44.685,207.704 45.259,207.745 45.326 C 207.847 45.490,208.488 48.268,208.593 49.000 C 208.694 49.699,209.584 53.056,209.924 54.022 C 210.058 54.400,210.167 54.870,210.167 55.067 C 210.167 55.264,210.476 56.399,210.854 57.588 C 211.232 58.777,211.707 60.350,211.910 61.083 C 212.113 61.817,212.559 63.204,212.902 64.167 C 213.244 65.129,213.830 66.779,214.204 67.833 C 214.579 68.887,214.937 69.825,215.000 69.917 C 215.064 70.008,215.243 70.481,215.397 70.967 C 215.552 71.453,215.856 72.240,216.073 72.717 C 216.767 74.246,217.048 74.911,217.095 75.141 C 217.149 75.401,218.706 78.543,218.842 78.667 C 218.893 78.712,219.064 79.012,219.222 79.333 C 219.623 80.146,221.104 82.461,221.602 83.053 C 222.013 83.541,222.014 83.547,221.693 83.897 C 220.814 84.855,217.000 91.509,217.000 92.085 C 217.000 92.185,216.166 94.137,215.576 95.417 C 215.449 95.692,215.312 96.104,215.270 96.333 C 215.229 96.563,215.009 97.165,214.782 97.673 C 214.555 98.180,214.056 99.530,213.674 100.673 C 213.291 101.815,212.805 103.237,212.594 103.833 C 212.382 104.429,212.127 105.217,212.026 105.583 C 211.925 105.950,211.540 107.207,211.169 108.376 C 210.798 109.545,210.378 111.008,210.236 111.626 C 209.968 112.792,209.333 115.154,208.911 116.559 C 208.777 117.003,208.706 117.430,208.753 117.506 C 208.800 117.581,208.763 117.691,208.669 117.748 C 208.576 117.806,208.500 118.040,208.500 118.269 C 208.500 118.498,208.248 119.713,207.941 120.968 C 207.274 123.692,206.928 125.315,206.657 127.000 C 206.547 127.688,206.420 128.344,206.377 128.458 C 206.278 128.719,190.082 128.767,189.921 128.507 C 189.866 128.419,189.791 128.025,189.754 127.632 C 189.685 126.912,189.606 126.436,189.428 125.667 C 189.150 124.464,188.669 122.252,188.413 121.000 C 188.254 120.221,187.799 118.346,187.403 116.833 C 187.008 115.321,186.564 113.558,186.419 112.917 C 186.273 112.275,185.853 110.802,185.485 109.643 C 185.118 108.483,184.780 107.328,184.734 107.075 C 184.688 106.822,184.567 106.458,184.464 106.266 C 184.361 106.074,184.288 105.899,184.301 105.877 C 184.338 105.814,184.255 105.534,183.675 103.750 C 183.086 101.935,183.007 101.683,183.013 101.623 C 183.021 101.538,182.138 99.222,181.907 98.722 C 181.773 98.431,181.617 97.961,181.560 97.677 C 181.503 97.392,181.392 97.119,181.312 97.070 C 181.232 97.021,181.167 96.874,181.167 96.745 C 181.167 96.537,180.933 95.963,180.071 94.058 C 179.940 93.769,179.833 93.444,179.833 93.335 C 179.833 93.226,179.464 92.375,179.012 91.444 C 178.560 90.512,178.143 89.581,178.084 89.375 C 178.025 89.169,177.908 89.000,177.822 89.000 C 177.737 89.000,177.667 88.895,177.667 88.767 C 177.667 88.638,177.404 88.143,177.083 87.667 C 176.762 87.190,176.500 86.750,176.500 86.690 C 176.500 86.630,176.050 85.919,175.500 85.111 C 174.298 83.345,174.308 83.505,175.328 82.167 C 175.783 81.571,176.157 80.990,176.161 80.875 C 176.164 80.760,176.242 80.667,176.333 80.667 C 176.425 80.667,176.500 80.593,176.500 80.503 C 176.500 80.413,176.788 79.869,177.139 79.295 C 177.491 78.720,177.779 78.212,177.779 78.167 C 177.780 78.121,178.197 77.221,178.706 76.167 C 179.616 74.285,180.597 71.984,181.123 70.500 C 181.269 70.087,181.752 68.813,182.196 67.667 C 182.641 66.521,183.035 65.427,183.071 65.235 C 183.180 64.664,183.550 63.429,183.667 63.250 C 183.727 63.158,183.972 62.446,184.212 61.667 C 185.236 58.343,186.013 55.724,186.078 55.374 C 186.116 55.168,186.186 54.936,186.233 54.860 C 186.280 54.784,186.362 54.466,186.415 54.153 C 186.467 53.840,186.629 53.171,186.774 52.667 C 187.268 50.950,187.858 48.586,188.086 47.417 C 188.281 46.409,188.914 43.624,189.501 41.189 C 189.597 40.788,189.722 40.020,189.778 39.480 L 189.881 38.500 198.096 38.500 C 205.778 38.500,206.316 38.519,206.391 38.792 M197.946 61.866 C 197.887 63.177,197.806 64.412,197.765 64.610 C 197.725 64.808,197.642 65.333,197.581 65.777 C 197.413 67.003,197.390 67.127,197.007 68.917 C 196.555 71.031,196.048 72.697,195.547 73.715 C 195.331 74.153,195.195 74.578,195.245 74.659 C 195.295 74.739,195.279 74.830,195.209 74.861 C 195.140 74.892,194.783 75.534,194.417 76.289 C 194.050 77.044,193.694 77.663,193.625 77.664 C 193.556 77.666,193.500 77.762,193.500 77.879 C 193.500 79.533,188.442 83.272,186.099 83.351 C 185.737 83.363,185.932 83.454,186.750 83.655 C 188.715 84.138,190.501 85.253,191.847 86.835 C 192.252 87.312,192.752 87.900,192.958 88.142 C 193.164 88.385,193.333 88.638,193.333 88.705 C 193.333 88.773,193.616 89.298,193.961 89.872 C 194.753 91.190,194.854 91.405,195.597 93.333 C 196.532 95.761,196.673 96.194,196.761 96.897 C 196.806 97.255,196.884 97.614,196.934 97.695 C 196.984 97.776,197.053 98.047,197.087 98.296 C 197.121 98.546,197.307 99.650,197.499 100.750 C 197.691 101.850,197.894 103.785,197.950 105.049 C 198.070 107.753,198.301 107.870,198.347 105.250 C 198.396 102.386,198.598 101.014,199.517 97.283 C 199.883 95.799,200.447 93.946,200.770 93.167 C 201.093 92.388,201.375 91.675,201.396 91.583 C 201.576 90.806,203.963 87.250,204.948 86.292 C 206.453 84.828,207.957 83.981,209.588 83.680 C 210.835 83.449,210.861 83.400,209.789 83.289 C 208.220 83.127,205.966 81.836,204.600 80.316 C 203.697 79.312,201.695 76.345,201.576 75.833 C 201.423 75.182,201.265 74.833,201.121 74.833 C 201.024 74.833,200.991 74.787,201.048 74.729 C 201.106 74.672,201.016 74.353,200.849 74.021 C 200.521 73.367,200.036 71.953,199.956 71.417 C 199.929 71.233,199.847 70.987,199.774 70.870 C 199.701 70.753,199.614 70.439,199.580 70.172 C 199.546 69.906,199.441 69.399,199.346 69.047 C 198.806 67.040,198.344 63.645,198.317 61.480 C 198.285 58.990,198.064 59.220,197.946 61.866 M170.085 89.667 C 170.424 90.171,170.844 90.846,171.019 91.167 C 171.194 91.487,171.404 91.862,171.486 92.000 C 171.841 92.594,173.145 95.474,173.335 96.083 C 173.450 96.450,173.597 96.825,173.663 96.917 C 173.804 97.114,175.000 100.082,175.000 100.235 C 175.000 100.293,175.274 101.033,175.608 101.879 C 175.943 102.725,176.389 103.979,176.601 104.667 C 176.812 105.354,177.217 106.587,177.500 107.406 C 177.783 108.225,178.192 109.537,178.408 110.322 C 178.625 111.108,179.044 112.575,179.340 113.583 C 179.636 114.592,179.933 115.717,180.001 116.083 C 180.068 116.450,180.440 117.950,180.827 119.417 C 181.214 120.883,181.596 122.458,181.676 122.917 C 181.884 124.109,181.940 124.375,182.672 127.641 C 183.034 129.259,183.334 130.808,183.339 131.083 C 183.343 131.358,183.516 132.446,183.722 133.500 L 184.096 135.417 198.132 135.459 C 205.851 135.483,212.167 135.476,212.167 135.445 C 212.167 135.413,212.435 134.044,212.762 132.402 C 213.089 130.760,213.396 129.079,213.443 128.667 C 213.489 128.254,213.740 127.017,213.999 125.917 C 214.258 124.817,214.639 123.129,214.845 122.167 C 215.051 121.204,215.477 119.404,215.792 118.167 C 216.107 116.929,216.474 115.467,216.606 114.917 C 216.874 113.806,216.892 113.743,217.745 110.917 C 220.054 103.266,222.895 95.645,224.485 92.840 C 224.860 92.178,225.167 91.566,225.167 91.479 C 225.167 91.306,225.438 90.864,226.349 89.549 L 226.951 88.681 227.584 89.261 C 228.859 90.429,230.873 91.694,233.917 93.238 L 235.583 94.083 235.558 97.667 C 235.527 101.975,235.414 103.639,234.982 106.167 C 234.557 108.648,234.535 108.755,234.112 110.417 C 233.971 110.967,233.813 111.717,233.759 112.083 C 233.705 112.450,233.520 113.200,233.349 113.750 C 233.177 114.300,232.875 115.313,232.677 116.000 C 232.480 116.688,232.246 117.380,232.159 117.539 C 232.072 117.699,232.000 117.947,232.000 118.092 C 232.000 118.236,231.826 118.744,231.612 119.219 C 231.399 119.694,231.014 120.608,230.757 121.250 C 230.202 122.635,229.623 123.884,229.482 124.000 C 229.426 124.046,229.280 124.365,229.157 124.708 C 229.034 125.052,228.869 125.333,228.790 125.333 C 228.711 125.333,228.690 125.403,228.743 125.488 C 228.796 125.574,228.767 125.688,228.678 125.743 C 228.590 125.797,228.271 126.290,227.970 126.838 C 227.669 127.385,227.365 127.833,227.295 127.833 C 227.224 127.833,227.167 127.935,227.167 128.059 C 227.167 128.184,226.904 128.629,226.583 129.049 C 226.262 129.470,226.000 129.890,226.000 129.984 C 226.000 130.078,225.848 130.236,225.662 130.336 C 225.476 130.435,225.364 130.582,225.413 130.661 C 225.462 130.740,225.445 130.830,225.376 130.861 C 225.307 130.892,224.849 131.404,224.359 132.000 C 223.203 133.405,220.439 136.240,219.678 136.801 C 219.351 137.042,218.816 137.466,218.488 137.744 C 217.220 138.822,217.000 138.995,217.000 138.917 C 217.000 138.873,216.869 138.943,216.708 139.074 C 215.867 139.759,214.812 140.500,214.678 140.500 C 214.594 140.500,214.308 140.683,214.042 140.907 C 211.961 142.658,204.138 145.339,199.917 145.748 C 199.458 145.792,198.886 145.871,198.646 145.923 C 198.405 145.975,197.542 145.908,196.729 145.774 C 195.916 145.640,195.137 145.536,195.000 145.542 C 193.757 145.601,188.346 143.962,185.698 142.725 C 184.845 142.326,184.111 142.000,184.068 142.000 C 183.989 142.000,182.479 141.046,180.542 139.771 C 179.969 139.394,179.500 139.029,179.500 138.960 C 179.500 138.890,179.406 138.833,179.292 138.833 C 179.074 138.833,177.048 137.232,175.944 136.188 C 173.801 134.161,172.833 133.185,172.833 133.050 C 172.833 132.965,172.602 132.675,172.319 132.406 C 171.777 131.890,169.167 128.435,169.167 128.233 C 169.167 128.168,168.974 127.863,168.739 127.555 C 168.504 127.247,168.163 126.677,167.982 126.289 C 167.800 125.901,167.507 125.358,167.331 125.083 C 166.971 124.520,166.289 123.170,166.236 122.917 C 166.217 122.825,165.942 122.188,165.624 121.500 C 165.306 120.813,164.962 119.987,164.861 119.667 C 164.759 119.346,164.480 118.521,164.241 117.833 C 163.675 116.208,163.132 114.304,162.671 112.333 C 162.468 111.462,162.259 110.638,162.209 110.500 C 162.098 110.199,162.120 110.294,161.700 108.333 C 161.513 107.462,161.319 106.337,161.268 105.833 C 161.216 105.329,161.132 104.542,161.080 104.083 C 161.029 103.625,160.923 102.688,160.846 102.000 C 160.769 101.313,160.695 99.246,160.681 97.409 L 160.655 94.067 161.250 93.784 C 161.577 93.628,161.925 93.500,162.022 93.500 C 162.120 93.500,162.901 93.087,163.757 92.583 C 164.614 92.079,165.360 91.667,165.414 91.667 C 165.469 91.667,165.605 91.591,165.715 91.498 C 166.470 90.865,167.443 90.169,167.583 90.162 C 167.675 90.157,168.124 89.824,168.581 89.422 C 169.038 89.019,169.425 88.703,169.440 88.720 C 169.456 88.736,169.746 89.162,170.085 89.667 M52.151 187.676 C 49.495 187.836,43.963 188.682,42.667 189.127 C 42.529 189.174,42.304 189.234,42.167 189.259 C 41.450 189.392,40.947 189.548,39.519 190.082 C 38.659 190.404,37.854 190.667,37.730 190.667 C 37.607 190.667,36.811 190.996,35.961 191.399 C 35.112 191.802,34.047 192.291,33.594 192.487 C 33.142 192.682,32.379 193.102,31.899 193.421 C 31.419 193.739,30.975 194.000,30.912 194.000 C 30.849 194.000,30.524 194.206,30.190 194.458 C 29.856 194.710,29.432 195.011,29.249 195.127 C 28.122 195.841,27.062 196.691,25.350 198.250 C 24.273 199.231,22.722 200.817,22.250 201.420 C 22.067 201.654,21.673 202.124,21.375 202.465 C 20.928 202.974,19.382 205.343,18.849 206.333 C 18.245 207.457,17.167 209.897,17.167 210.141 C 17.167 210.308,17.114 210.497,17.051 210.560 C 16.987 210.624,16.921 210.768,16.904 210.880 C 16.887 210.992,16.722 211.608,16.536 212.250 C 16.131 213.653,15.848 214.876,15.748 215.667 C 15.707 215.987,15.589 216.925,15.485 217.750 C 14.922 222.229,16.034 229.290,17.934 233.295 C 18.337 234.144,18.667 234.898,18.667 234.969 C 18.667 235.040,19.011 235.620,19.431 236.258 C 19.851 236.895,20.305 237.627,20.440 237.884 C 20.574 238.141,20.812 238.479,20.967 238.636 C 21.123 238.792,21.496 239.257,21.796 239.669 C 22.487 240.615,24.626 242.810,25.870 243.848 C 26.395 244.286,27.031 244.837,27.285 245.072 C 27.539 245.307,27.829 245.500,27.931 245.500 C 28.032 245.500,28.256 245.656,28.429 245.847 C 28.780 246.235,31.569 248.000,31.832 248.000 C 31.924 248.000,32.000 248.064,32.000 248.141 C 32.000 248.261,33.223 248.901,33.495 248.924 C 33.543 248.928,34.224 249.246,35.007 249.630 C 35.790 250.014,36.765 250.436,37.174 250.568 C 37.582 250.700,38.667 251.078,39.583 251.409 C 40.500 251.740,41.962 252.154,42.833 252.330 C 43.704 252.506,44.949 252.765,45.601 252.905 C 50.089 253.874,58.897 254.077,63.833 253.325 C 66.150 252.972,70.426 252.125,70.599 251.984 C 70.699 251.903,70.818 251.873,70.863 251.919 C 70.938 251.994,75.551 250.467,76.159 250.166 C 76.301 250.096,76.942 249.791,77.583 249.488 C 78.225 249.185,78.805 248.857,78.872 248.760 C 78.940 248.663,78.996 248.642,78.997 248.713 C 79.000 248.841,79.886 248.436,80.234 248.147 C 80.551 247.884,81.573 247.238,81.833 247.136 C 82.787 246.762,85.670 244.412,88.133 242.000 C 91.296 238.904,91.296 238.903,89.260 237.882 C 88.613 237.557,87.541 236.964,86.878 236.563 C 86.215 236.161,85.608 235.833,85.530 235.833 C 85.452 235.833,84.757 235.450,83.986 234.981 C 82.095 233.833,81.955 233.820,81.108 234.725 C 80.520 235.353,78.621 237.079,78.083 237.475 C 77.992 237.542,77.505 237.921,77.003 238.318 C 76.500 238.714,75.930 239.098,75.735 239.172 C 75.540 239.246,74.977 239.566,74.482 239.882 C 68.248 243.867,54.718 245.344,46.029 242.988 C 45.326 242.797,44.637 242.621,44.500 242.597 C 43.440 242.408,41.879 241.855,40.250 241.091 C 39.792 240.876,39.229 240.620,39.000 240.523 C 38.771 240.425,38.208 240.117,37.750 239.839 C 37.292 239.561,36.726 239.240,36.492 239.125 C 33.926 237.866,29.530 232.846,28.319 229.794 C 26.866 226.131,26.606 224.810,26.592 221.000 C 26.578 217.027,26.863 215.338,28.013 212.583 C 28.128 212.308,28.235 212.046,28.250 212.000 C 28.520 211.195,28.844 210.644,30.551 208.083 C 31.188 207.127,33.717 204.525,35.132 203.370 C 36.573 202.194,40.191 200.256,42.965 199.176 C 43.449 198.988,44.018 198.833,44.228 198.833 C 44.439 198.833,44.663 198.781,44.727 198.717 C 44.791 198.654,44.935 198.583,45.046 198.560 C 45.158 198.538,45.400 198.483,45.583 198.438 C 51.862 196.896,59.056 196.834,65.250 198.269 C 66.258 198.503,67.283 198.723,67.526 198.759 C 68.087 198.840,69.819 199.432,70.958 199.932 C 71.440 200.142,71.834 200.263,71.836 200.199 C 71.837 200.135,71.894 200.158,71.961 200.250 C 72.028 200.342,72.901 200.829,73.900 201.333 C 75.416 202.098,76.694 202.894,77.583 203.627 C 77.675 203.703,78.009 203.949,78.325 204.174 C 78.641 204.399,79.541 205.201,80.325 205.956 C 81.109 206.711,81.847 207.329,81.966 207.331 C 82.352 207.335,90.958 204.233,91.227 203.992 C 91.596 203.660,87.107 198.779,85.000 197.220 C 84.496 196.847,83.880 196.351,83.630 196.117 C 83.381 195.884,83.044 195.650,82.880 195.597 C 82.717 195.545,82.358 195.308,82.083 195.070 C 81.098 194.219,75.415 191.167,74.815 191.167 C 74.731 191.167,74.532 191.091,74.373 191.000 C 73.774 190.654,69.053 189.149,68.333 189.074 C 67.921 189.032,67.171 188.892,66.667 188.763 C 64.540 188.220,62.145 187.902,58.417 187.668 C 55.640 187.494,55.168 187.494,52.151 187.676 M108.333 220.835 L 108.333 252.153 113.625 252.118 L 118.917 252.083 118.959 220.788 L 119.001 189.492 113.667 189.505 L 108.333 189.517 108.333 220.835 M162.252 190.290 C 162.020 190.726,161.769 191.196,161.693 191.333 C 161.618 191.471,161.423 191.846,161.259 192.167 C 159.969 194.701,158.837 196.800,158.563 197.167 C 158.460 197.304,158.287 197.693,158.178 198.031 C 158.070 198.369,157.846 198.819,157.682 199.031 C 157.518 199.243,156.946 200.279,156.411 201.333 C 155.877 202.387,155.253 203.550,155.025 203.917 C 154.797 204.283,154.640 204.583,154.676 204.583 C 154.712 204.583,154.463 205.083,154.121 205.694 C 153.779 206.304,153.500 206.886,153.500 206.985 C 153.500 207.085,153.412 207.167,153.306 207.167 C 153.199 207.167,153.154 207.210,153.206 207.262 C 153.259 207.314,153.037 207.821,152.714 208.387 C 152.390 208.953,151.985 209.663,151.813 209.963 C 151.641 210.264,151.500 210.579,151.500 210.664 C 151.500 210.749,151.118 211.478,150.650 212.284 C 150.183 213.090,149.787 213.831,149.770 213.930 C 149.753 214.030,149.430 214.630,149.052 215.264 C 148.675 215.898,148.040 217.092,147.641 217.917 C 147.243 218.742,146.871 219.454,146.816 219.500 C 146.761 219.546,146.412 220.183,146.040 220.917 C 145.669 221.650,145.026 222.887,144.612 223.667 C 144.198 224.446,143.613 225.571,143.313 226.167 C 143.013 226.762,142.445 227.800,142.051 228.472 C 141.656 229.144,141.333 229.738,141.333 229.791 C 141.333 230.009,140.761 231.167,140.653 231.167 C 140.589 231.167,140.414 231.448,140.264 231.792 C 140.115 232.135,139.728 232.904,139.406 233.500 C 138.895 234.443,138.004 236.126,136.582 238.833 C 136.365 239.246,136.148 239.696,136.099 239.833 C 136.051 239.971,135.785 240.458,135.510 240.917 C 135.234 241.375,134.794 242.162,134.532 242.667 C 134.270 243.171,133.578 244.483,132.995 245.583 C 132.411 246.683,131.541 248.333,131.061 249.250 C 130.581 250.167,130.072 251.132,129.930 251.395 C 129.518 252.159,129.575 252.167,135.506 252.167 L 141.159 252.167 141.474 251.542 C 141.647 251.198,141.996 250.542,142.249 250.083 C 142.696 249.274,145.631 243.589,146.121 242.583 C 146.255 242.308,146.585 241.671,146.854 241.167 C 147.122 240.662,147.577 239.781,147.864 239.208 L 148.386 238.167 169.180 238.167 L 189.973 238.167 190.311 238.713 C 190.596 239.175,192.456 242.740,193.287 244.417 C 194.173 246.206,194.432 246.666,194.552 246.666 C 194.626 246.666,194.645 246.733,194.595 246.814 C 194.545 246.896,194.615 247.055,194.752 247.168 C 194.888 247.281,195.000 247.481,195.000 247.612 C 195.000 247.742,195.303 248.389,195.674 249.050 C 196.045 249.710,196.411 250.362,196.487 250.500 C 196.564 250.637,196.771 251.050,196.947 251.417 L 197.266 252.083 202.966 252.127 C 208.155 252.167,208.667 252.147,208.667 251.898 C 208.667 251.610,208.232 250.714,206.894 248.250 C 206.447 247.425,205.791 246.188,205.438 245.500 C 205.085 244.813,204.585 243.875,204.327 243.417 C 204.069 242.958,203.554 241.983,203.182 241.250 C 202.810 240.517,202.181 239.317,201.785 238.583 C 200.989 237.109,199.885 235.020,196.504 228.583 C 195.453 226.583,194.487 224.800,193.729 223.464 C 193.328 222.757,193.000 222.131,193.000 222.073 C 193.000 222.015,192.645 221.319,192.211 220.526 C 191.777 219.732,191.417 219.046,191.412 219.000 C 191.396 218.861,190.794 217.756,190.685 217.667 C 190.629 217.621,190.208 216.842,189.750 215.936 C 189.292 215.031,188.493 213.493,187.975 212.520 C 187.458 211.546,186.895 210.487,186.725 210.167 C 186.556 209.846,186.342 209.528,186.250 209.461 C 186.158 209.394,186.146 209.337,186.222 209.336 C 186.298 209.334,186.212 209.090,186.031 208.792 C 185.851 208.494,185.327 207.537,184.869 206.667 C 184.410 205.796,183.840 204.746,183.603 204.333 C 183.365 203.921,183.170 203.458,183.169 203.306 C 183.168 203.153,183.101 203.003,183.021 202.972 C 182.941 202.942,182.642 202.453,182.358 201.887 C 182.073 201.321,181.764 200.810,181.670 200.752 C 181.577 200.694,181.500 200.501,181.500 200.323 C 181.500 200.146,181.438 200.000,181.361 200.000 C 181.285 200.000,181.222 199.906,181.222 199.791 C 181.222 199.676,181.026 199.271,180.786 198.891 C 180.546 198.511,180.170 197.836,179.950 197.392 C 179.731 196.947,179.075 195.683,178.495 194.583 C 177.914 193.483,177.087 191.908,176.657 191.083 L 175.875 189.583 169.275 189.540 L 162.674 189.496 162.252 190.290 M219.500 220.836 L 219.500 252.171 224.792 252.127 L 230.083 252.083 230.167 226.786 L 230.250 201.489 231.917 203.266 C 232.833 204.243,234.071 205.568,234.667 206.212 C 235.262 206.855,236.463 208.138,237.333 209.062 C 238.204 209.986,239.292 211.143,239.750 211.633 C 240.208 212.122,240.958 212.920,241.417 213.405 C 242.281 214.320,243.148 215.255,245.833 218.169 C 246.704 219.114,247.792 220.282,248.250 220.763 C 248.708 221.245,249.758 222.373,250.583 223.271 C 251.408 224.169,252.683 225.534,253.417 226.306 C 254.150 227.078,254.827 227.793,254.921 227.896 C 255.942 229.011,259.862 233.226,260.321 233.703 C 260.648 234.044,261.422 234.869,262.041 235.536 C 262.659 236.204,263.750 237.369,264.465 238.125 C 265.180 238.881,265.735 239.500,265.698 239.500 C 265.660 239.500,266.032 239.898,266.523 240.384 C 268.241 242.083,269.489 243.455,269.399 243.545 C 269.349 243.595,269.464 243.686,269.654 243.746 C 269.844 243.806,270.000 243.913,270.000 243.983 C 270.000 244.053,270.469 244.597,271.042 245.192 C 271.615 245.788,272.946 247.207,274.000 248.345 C 275.054 249.484,276.286 250.810,276.737 251.291 L 277.556 252.167 284.029 252.167 L 290.501 252.167 290.459 220.875 L 290.417 189.583 285.126 189.539 L 279.834 189.495 279.792 214.888 L 279.750 240.282 278.345 238.766 C 275.948 236.179,273.107 233.131,272.583 232.585 C 272.308 232.298,271.371 231.284,270.500 230.333 C 269.629 229.382,268.410 228.099,267.792 227.483 C 267.173 226.867,266.667 226.328,266.667 226.284 C 266.667 226.241,266.385 225.911,266.042 225.551 C 265.080 224.543,261.417 220.645,260.904 220.083 C 259.133 218.145,257.070 215.912,256.065 214.843 C 255.413 214.150,253.838 212.459,252.565 211.084 C 251.292 209.709,249.819 208.150,249.292 207.619 C 248.765 207.087,248.333 206.623,248.333 206.587 C 248.333 206.551,247.814 205.987,247.179 205.335 C 246.545 204.682,245.738 203.812,245.388 203.402 C 245.037 202.992,244.188 202.069,243.500 201.353 C 242.813 200.636,241.428 199.157,240.424 198.067 C 238.868 196.377,237.969 195.416,236.488 193.859 C 236.344 193.707,235.382 192.665,234.351 191.542 L 232.475 189.500 225.987 189.500 L 219.500 189.500 219.500 220.836 M334.724 189.708 C 334.594 189.916,334.301 190.467,333.056 192.833 C 332.694 193.521,332.115 194.590,331.768 195.208 C 331.422 195.827,331.181 196.333,331.234 196.333 C 331.286 196.333,331.071 196.737,330.755 197.231 C 330.440 197.724,329.925 198.643,329.613 199.272 C 329.300 199.902,328.538 201.354,327.919 202.500 C 327.301 203.646,326.389 205.371,325.893 206.333 C 325.398 207.296,324.921 208.196,324.833 208.333 C 324.746 208.471,324.496 208.958,324.276 209.417 C 323.625 210.780,323.092 211.746,322.958 211.806 C 322.890 211.836,322.833 211.940,322.833 212.036 C 322.833 212.132,322.458 212.866,322.000 213.667 C 321.542 214.468,321.167 215.240,321.167 215.383 C 321.167 215.526,321.063 215.747,320.936 215.874 C 320.809 216.000,320.538 216.437,320.332 216.844 C 320.127 217.251,319.878 217.685,319.779 217.808 C 319.679 217.932,319.584 218.126,319.568 218.240 C 319.551 218.353,319.200 219.041,318.786 219.769 C 318.373 220.497,317.917 221.353,317.773 221.671 C 317.628 221.990,317.246 222.700,316.923 223.250 C 316.600 223.800,316.261 224.438,316.171 224.667 C 316.081 224.896,315.882 225.308,315.729 225.583 C 315.577 225.858,314.893 227.133,314.209 228.417 C 313.526 229.700,312.890 230.844,312.796 230.958 C 312.703 231.073,312.671 231.167,312.725 231.167 C 312.780 231.167,312.608 231.534,312.344 231.982 C 312.079 232.431,311.133 234.212,310.242 235.941 C 309.351 237.669,308.575 239.121,308.519 239.167 C 308.463 239.213,308.079 239.925,307.667 240.750 C 307.254 241.575,306.860 242.275,306.792 242.306 C 306.723 242.336,306.667 242.490,306.667 242.647 C 306.667 242.805,306.585 243.015,306.486 243.114 C 306.304 243.296,305.319 245.114,304.651 246.500 C 304.263 247.306,304.251 247.330,303.539 248.583 C 302.699 250.065,301.826 251.830,301.831 252.042 C 301.832 252.110,304.419 252.167,307.578 252.167 L 313.323 252.167 314.054 250.708 C 315.575 247.673,316.762 245.401,317.048 244.979 C 317.211 244.738,317.372 244.401,317.406 244.229 C 317.440 244.057,317.725 243.462,318.040 242.907 C 318.355 242.351,319.049 241.057,319.582 240.031 L 320.551 238.165 341.391 238.208 L 362.231 238.250 363.087 239.917 C 363.557 240.833,364.142 241.921,364.386 242.333 C 364.630 242.746,364.830 243.208,364.831 243.361 C 364.832 243.514,364.890 243.664,364.958 243.694 C 365.027 243.725,365.269 244.125,365.496 244.583 C 365.723 245.042,365.948 245.454,365.996 245.500 C 366.044 245.546,366.608 246.633,367.250 247.917 C 367.892 249.200,368.664 250.681,368.966 251.208 L 369.516 252.167 375.165 252.167 C 378.272 252.167,380.851 252.107,380.896 252.034 C 380.941 251.961,380.686 251.399,380.329 250.784 C 379.973 250.170,379.713 249.667,379.753 249.667 C 379.792 249.667,379.615 249.310,379.359 248.875 C 379.103 248.440,378.649 247.596,378.350 247.000 C 378.051 246.404,377.551 245.467,377.239 244.917 C 376.927 244.367,376.552 243.654,376.405 243.333 C 376.259 243.012,376.074 242.637,375.994 242.500 C 375.182 241.104,374.860 240.496,374.670 240.000 C 374.547 239.679,374.323 239.267,374.173 239.083 C 374.022 238.900,373.580 238.112,373.191 237.333 C 372.801 236.554,372.087 235.167,371.603 234.250 C 369.167 229.636,368.662 228.679,368.225 227.840 C 367.964 227.340,367.656 226.828,367.542 226.703 C 367.427 226.578,367.333 226.405,367.333 226.318 C 367.333 226.231,367.157 225.880,366.941 225.538 C 366.725 225.196,366.494 224.743,366.426 224.531 C 366.359 224.318,366.021 223.643,365.675 223.031 C 365.329 222.418,364.425 220.717,363.665 219.250 C 361.998 216.034,361.947 215.940,361.802 215.830 C 361.739 215.782,361.534 215.384,361.346 214.946 C 361.158 214.507,360.703 213.633,360.335 213.003 C 359.968 212.374,359.667 211.784,359.667 211.693 C 359.667 211.602,359.325 210.949,358.907 210.242 C 358.488 209.535,358.030 208.666,357.888 208.311 C 357.747 207.957,357.572 207.667,357.500 207.667 C 357.428 207.667,357.327 207.498,357.275 207.292 C 357.223 207.085,356.931 206.504,356.627 206.000 C 356.323 205.496,356.058 205.008,356.038 204.917 C 356.008 204.778,355.447 203.717,354.848 202.667 C 354.769 202.529,354.604 202.192,354.480 201.917 C 354.356 201.642,353.942 200.878,353.560 200.221 C 353.177 199.563,352.907 198.982,352.960 198.929 C 353.013 198.876,352.968 198.833,352.861 198.833 C 352.754 198.833,352.667 198.714,352.667 198.567 C 352.667 198.421,352.525 198.102,352.352 197.859 C 352.179 197.616,351.819 196.967,351.552 196.417 C 351.285 195.867,350.696 194.742,350.244 193.917 C 349.791 193.092,349.419 192.379,349.416 192.333 C 349.412 192.287,349.074 191.631,348.663 190.875 L 347.917 189.500 341.385 189.500 C 336.339 189.500,334.824 189.547,334.724 189.708 M170.591 201.417 C 171.216 202.608,172.335 204.746,173.078 206.167 C 173.821 207.588,174.511 208.900,174.612 209.083 C 174.712 209.267,174.896 209.642,175.020 209.917 C 175.144 210.192,175.528 210.887,175.873 211.461 C 176.218 212.036,176.500 212.533,176.500 212.566 C 176.500 212.727,177.054 213.840,177.504 214.583 C 177.781 215.042,178.089 215.604,178.189 215.833 C 178.456 216.451,178.567 216.668,179.082 217.583 C 179.340 218.042,180.131 219.542,180.839 220.917 C 181.546 222.292,182.351 223.799,182.627 224.266 C 182.903 224.734,183.184 225.296,183.253 225.516 C 183.322 225.736,183.424 225.954,183.481 226.000 C 183.537 226.046,183.869 226.627,184.218 227.292 L 184.853 228.500 169.275 228.500 L 153.697 228.500 154.541 226.792 C 155.005 225.852,155.438 225.046,155.503 225.000 C 155.706 224.855,156.181 223.833,156.046 223.831 C 155.975 223.829,155.992 223.773,156.083 223.706 C 156.175 223.638,156.448 223.208,156.689 222.750 C 156.931 222.292,157.665 220.914,158.321 219.689 C 158.977 218.463,159.529 217.376,159.548 217.272 C 159.568 217.168,159.631 217.046,159.690 217.000 C 159.749 216.954,160.340 215.867,161.004 214.583 C 161.667 213.300,162.341 212.063,162.500 211.833 C 162.659 211.604,162.846 211.236,162.914 211.015 C 162.983 210.794,163.405 209.977,163.853 209.200 C 164.301 208.422,164.667 207.720,164.667 207.639 C 164.667 207.559,164.842 207.214,165.056 206.872 C 165.270 206.530,165.936 205.313,166.535 204.167 C 168.968 199.518,169.248 199.016,169.350 199.130 C 169.408 199.196,169.966 200.225,170.591 201.417 M341.650 199.500 C 341.798 199.624,343.053 201.967,343.078 202.167 C 343.083 202.213,343.443 202.899,343.877 203.692 C 344.311 204.486,344.667 205.172,344.667 205.218 C 344.667 205.264,344.939 205.777,345.272 206.359 C 345.605 206.941,346.478 208.579,347.212 210.000 C 347.946 211.421,348.791 213.005,349.088 213.519 C 349.386 214.034,349.687 214.634,349.756 214.853 C 349.825 215.071,350.208 215.789,350.607 216.447 C 351.007 217.105,351.333 217.718,351.333 217.809 C 351.333 217.899,351.693 218.598,352.132 219.362 C 352.571 220.125,353.033 221.012,353.159 221.333 C 353.285 221.654,353.477 222.029,353.587 222.167 C 353.696 222.304,353.992 222.829,354.244 223.333 C 354.497 223.838,354.784 224.400,354.881 224.583 C 356.027 226.738,356.833 228.314,356.833 228.397 C 356.833 228.454,349.861 228.500,341.339 228.500 C 326.652 228.500,325.849 228.485,325.950 228.208 C 326.009 228.048,326.286 227.506,326.566 227.003 C 326.846 226.501,327.090 225.989,327.108 225.864 C 327.126 225.740,327.265 225.548,327.416 225.438 C 327.567 225.328,327.667 225.165,327.638 225.077 C 327.610 224.989,327.960 224.279,328.417 223.500 C 328.874 222.721,329.248 222.008,329.248 221.917 C 329.248 221.825,329.536 221.269,329.888 220.681 C 330.241 220.094,330.772 219.119,331.069 218.515 C 331.366 217.911,332.195 216.329,332.910 215.000 C 333.626 213.671,334.487 212.058,334.825 211.417 C 335.162 210.775,335.913 209.350,336.494 208.250 C 337.075 207.150,337.731 205.886,337.950 205.442 C 338.170 204.997,338.546 204.322,338.786 203.943 C 339.026 203.563,339.222 203.158,339.222 203.043 C 339.222 202.928,339.285 202.833,339.361 202.833 C 339.438 202.833,339.500 202.714,339.500 202.567 C 339.500 202.421,339.640 202.102,339.811 201.859 C 339.982 201.616,340.409 200.859,340.759 200.178 C 341.118 199.481,341.430 199.044,341.473 199.178 C 341.515 199.309,341.595 199.454,341.650 199.500 M256.434 273.622 C 256.379 273.677,256.333 278.210,256.333 283.694 L 256.333 293.667 257.748 293.667 L 259.163 293.667 259.206 287.068 L 259.250 280.470 259.917 281.132 C 260.558 281.768,265.373 286.670,270.562 291.969 C 271.925 293.361,273.107 294.500,273.188 294.500 C 273.273 294.500,273.318 290.194,273.293 284.375 L 273.250 274.250 271.917 274.250 L 270.583 274.250 270.540 281.050 L 270.496 287.851 267.290 284.567 C 265.526 282.761,262.940 280.114,261.542 278.684 C 260.144 277.255,259.000 276.067,259.000 276.044 C 259.000 275.889,256.514 273.542,256.434 273.622 M140.667 273.766 C 137.520 274.346,135.874 275.218,134.020 277.290 C 133.215 278.189,132.068 280.212,131.957 280.931 C 131.929 281.106,131.843 281.352,131.765 281.478 C 131.465 281.959,131.495 285.197,131.810 286.333 C 132.164 287.608,132.820 289.167,133.002 289.167 C 133.073 289.167,133.176 289.335,133.230 289.542 C 133.331 289.919,135.073 291.819,135.839 292.388 C 136.395 292.802,138.500 293.864,138.500 293.732 C 138.500 293.673,138.608 293.715,138.739 293.824 C 139.293 294.284,145.833 294.421,145.833 293.973 C 145.833 293.885,145.895 293.852,145.970 293.898 C 146.391 294.159,149.078 292.673,149.975 291.682 C 150.191 291.445,150.576 291.021,150.832 290.742 C 151.602 289.901,152.669 287.681,152.737 286.782 C 152.770 286.342,152.842 285.935,152.898 285.879 C 152.954 285.824,153.000 285.340,153.000 284.806 L 153.000 283.833 148.750 283.833 L 144.500 283.833 144.500 285.250 L 144.500 286.667 147.086 286.667 L 149.672 286.667 149.233 287.542 C 147.674 290.649,144.298 291.954,140.292 291.000 C 135.593 289.880,132.882 283.921,135.525 280.519 C 135.694 280.301,135.833 280.028,135.833 279.913 C 135.833 279.673,137.632 278.039,138.302 277.670 C 139.830 276.829,142.835 276.447,144.182 276.922 C 144.526 277.043,145.019 277.178,145.278 277.222 C 146.037 277.349,146.350 277.511,147.583 278.414 C 148.225 278.883,148.850 279.329,148.973 279.403 C 149.127 279.496,149.510 279.215,150.206 278.501 L 151.215 277.463 150.566 276.894 C 150.209 276.581,149.811 276.233,149.683 276.121 C 149.303 275.789,147.796 274.866,147.167 274.579 C 145.970 274.034,141.946 273.531,140.667 273.766 M300.750 273.771 C 298.322 274.137,296.713 274.810,295.318 276.042 C 295.033 276.294,294.732 276.500,294.650 276.500 C 294.567 276.500,294.500 276.572,294.500 276.659 C 294.500 276.747,294.199 277.141,293.832 277.534 C 292.514 278.946,291.501 281.730,291.510 283.917 C 291.519 286.026,292.435 288.802,293.525 290.023 C 293.740 290.265,294.240 290.846,294.634 291.315 C 295.029 291.783,295.426 292.167,295.516 292.167 C 295.607 292.167,295.830 292.306,296.012 292.475 C 296.638 293.059,299.477 294.259,299.948 294.139 C 300.022 294.120,300.683 294.162,301.417 294.232 C 307.716 294.835,312.431 291.233,312.779 285.553 L 312.884 283.833 308.602 283.833 L 304.320 283.833 304.368 285.208 L 304.417 286.583 306.968 286.629 C 309.858 286.682,309.738 286.593,308.939 288.079 C 307.786 290.223,305.697 291.247,302.500 291.234 C 299.776 291.224,298.413 290.710,296.787 289.084 C 294.436 286.733,293.929 283.519,295.452 280.621 C 297.711 276.323,303.633 275.386,307.888 278.655 C 309.007 279.514,309.031 279.524,309.388 279.228 C 310.285 278.484,311.000 277.750,311.000 277.573 C 311.000 277.068,309.383 275.779,307.458 274.751 C 306.207 274.082,302.388 273.524,300.750 273.771 M83.444 274.278 C 83.383 274.339,83.333 278.728,83.333 284.030 L 83.333 293.672 87.875 293.628 L 92.417 293.583 92.417 292.250 L 92.417 290.917 89.292 290.871 L 86.167 290.826 86.167 282.496 L 86.167 274.167 84.861 274.167 C 84.143 274.167,83.506 274.217,83.444 274.278 M110.375 274.273 C 110.212 274.342,110.167 276.450,110.167 284.014 L 110.167 293.667 111.583 293.667 L 113.000 293.667 113.000 283.941 L 113.000 274.215 111.792 274.200 C 111.127 274.192,110.490 274.225,110.375 274.273 M171.576 274.375 C 171.533 274.490,171.516 278.858,171.540 284.083 L 171.583 293.583 173.042 293.631 L 174.500 293.680 174.500 289.090 L 174.500 284.500 178.914 284.500 L 183.328 284.500 183.372 289.042 L 183.417 293.583 184.833 293.583 L 186.250 293.583 186.293 284.011 C 186.327 276.463,186.292 274.410,186.126 274.305 C 185.860 274.136,183.327 274.124,183.353 274.292 C 183.364 274.360,183.364 276.048,183.353 278.042 L 183.333 281.667 178.917 281.667 L 174.500 281.667 174.500 278.117 C 174.500 275.578,174.443 274.510,174.300 274.367 C 174.023 274.090,171.683 274.097,171.576 274.375 M204.333 275.667 L 204.333 277.167 206.582 277.167 L 208.830 277.167 208.873 285.375 L 208.917 293.583 210.333 293.583 L 211.750 293.583 211.793 285.375 L 211.836 277.167 214.085 277.167 L 216.333 277.167 216.333 275.867 C 216.333 274.034,216.817 274.167,210.133 274.167 L 204.333 274.167 204.333 275.667 M234.375 274.277 C 234.212 274.343,234.167 276.448,234.167 284.014 L 234.167 293.667 235.583 293.667 L 237.000 293.667 237.000 283.917 L 237.000 274.167 235.792 274.180 C 235.127 274.187,234.490 274.231,234.375 274.277 "
            stroke="none" fill="#c09d5b" fill-rule="evenodd"></path>
        <path id="path1"
            d="M246.334 204.417 C 246.563 204.692,246.769 204.948,246.792 204.986 C 246.815 205.024,246.870 205.019,246.915 204.974 C 246.960 204.929,246.754 204.673,246.457 204.405 L 245.918 203.917 246.334 204.417 M90.333 239.708 C 90.087 240.044,90.047 240.160,90.227 240.014 C 90.501 239.792,90.914 239.167,90.787 239.167 C 90.755 239.167,90.551 239.410,90.333 239.708 M266.167 287.583 C 266.478 287.904,266.770 288.167,266.815 288.167 C 266.861 288.167,266.644 287.904,266.333 287.583 C 266.022 287.262,265.730 287.000,265.685 287.000 C 265.639 287.000,265.856 287.262,266.167 287.583 "
            stroke="none" fill="#c09d5b" fill-rule="evenodd"></path>
        <path id="path2"
            d="M246.334 204.417 C 246.563 204.692,246.769 204.948,246.792 204.986 C 246.815 205.024,246.870 205.019,246.915 204.974 C 246.960 204.929,246.754 204.673,246.457 204.405 L 245.918 203.917 246.334 204.417 M90.333 239.708 C 90.087 240.044,90.047 240.160,90.227 240.014 C 90.501 239.792,90.914 239.167,90.787 239.167 C 90.755 239.167,90.551 239.410,90.333 239.708 M266.167 287.583 C 266.478 287.904,266.770 288.167,266.815 288.167 C 266.861 288.167,266.644 287.904,266.333 287.583 C 266.022 287.262,265.730 287.000,265.685 287.000 C 265.639 287.000,265.856 287.262,266.167 287.583 "
            stroke="none" fill="#c09d5b" fill-rule="evenodd"></path>
        <path id="path3"
            d="M246.334 204.417 C 246.563 204.692,246.769 204.948,246.792 204.986 C 246.815 205.024,246.870 205.019,246.915 204.974 C 246.960 204.929,246.754 204.673,246.457 204.405 L 245.918 203.917 246.334 204.417 M90.333 239.708 C 90.087 240.044,90.047 240.160,90.227 240.014 C 90.501 239.792,90.914 239.167,90.787 239.167 C 90.755 239.167,90.551 239.410,90.333 239.708 M266.167 287.583 C 266.478 287.904,266.770 288.167,266.815 288.167 C 266.861 288.167,266.644 287.904,266.333 287.583 C 266.022 287.262,265.730 287.000,265.685 287.000 C 265.639 287.000,265.856 287.262,266.167 287.583 "
            stroke="none" fill="#c09d5b" fill-rule="evenodd"></path>
        <path id="path4"
            d="M246.334 204.417 C 246.563 204.692,246.769 204.948,246.792 204.986 C 246.815 205.024,246.870 205.019,246.915 204.974 C 246.960 204.929,246.754 204.673,246.457 204.405 L 245.918 203.917 246.334 204.417 M90.333 239.708 C 90.087 240.044,90.047 240.160,90.227 240.014 C 90.501 239.792,90.914 239.167,90.787 239.167 C 90.755 239.167,90.551 239.410,90.333 239.708 M266.167 287.583 C 266.478 287.904,266.770 288.167,266.815 288.167 C 266.861 288.167,266.644 287.904,266.333 287.583 C 266.022 287.262,265.730 287.000,265.685 287.000 C 265.639 287.000,265.856 287.262,266.167 287.583 "
            stroke="none" fill="#c09d5b" fill-rule="evenodd"></path>
    </g>
</svg>